<mxfile host="Electron" modified="2024-03-19T14:47:22.225Z" agent="Mozilla/5.0 (Macintosh; Intel Mac OS X 10_15_7) AppleWebKit/537.36 (KHTML, like Gecko) draw.io/24.0.4 Chrome/120.0.6099.109 Electron/28.1.0 Safari/537.36" etag="LPZbThdirbuDSNTR0BLV" version="24.0.4" type="device">
  <diagram name="Page-1" id="qS1joPfT2jCsgTONwS8w">
    <mxGraphModel dx="1132" dy="769" grid="1" gridSize="10" guides="1" tooltips="1" connect="1" arrows="1" fold="1" page="1" pageScale="1" pageWidth="827" pageHeight="1169" math="0" shadow="0">
      <root>
        <mxCell id="0" />
        <mxCell id="1" parent="0" />
        <mxCell id="bz02WKkgprwopZvEUGa7-2" value="net premium" style="rounded=0;whiteSpace=wrap;html=1;fillColor=#f5f5f5;fontColor=#333333;strokeColor=#666666;" parent="1" vertex="1">
          <mxGeometry x="120" y="440" width="80" height="200" as="geometry" />
        </mxCell>
        <mxCell id="bz02WKkgprwopZvEUGa7-3" value="product fix" style="rounded=0;whiteSpace=wrap;html=1;fillColor=#dae8fc;strokeColor=#6c8ebf;fillStyle=solid;" parent="1" vertex="1">
          <mxGeometry x="120" y="420" width="80" height="20" as="geometry" />
        </mxCell>
        <mxCell id="bz02WKkgprwopZvEUGa7-5" value="pool fix" style="rounded=0;whiteSpace=wrap;html=1;fillColor=#d5e8d4;strokeColor=#82b366;fillStyle=solid;" parent="1" vertex="1">
          <mxGeometry x="120" y="400" width="80" height="20" as="geometry" />
        </mxCell>
        <mxCell id="bz02WKkgprwopZvEUGa7-6" value="bundle fix" style="rounded=0;whiteSpace=wrap;html=1;fillColor=#fff2cc;strokeColor=#d6b656;fillStyle=solid;" parent="1" vertex="1">
          <mxGeometry x="120" y="380" width="80" height="20" as="geometry" />
        </mxCell>
        <mxCell id="bz02WKkgprwopZvEUGa7-7" value="dist fix" style="rounded=0;whiteSpace=wrap;html=1;fillColor=#f8cecc;strokeColor=#b85450;gradientColor=none;fillStyle=solid;" parent="1" vertex="1">
          <mxGeometry x="120" y="360" width="80" height="20" as="geometry" />
        </mxCell>
        <mxCell id="bz02WKkgprwopZvEUGa7-8" value="product var" style="rounded=0;whiteSpace=wrap;html=1;fillColor=#dae8fc;strokeColor=#6c8ebf;" parent="1" vertex="1">
          <mxGeometry x="120" y="330" width="80" height="30" as="geometry" />
        </mxCell>
        <mxCell id="bz02WKkgprwopZvEUGa7-9" value="pool var" style="rounded=0;whiteSpace=wrap;html=1;fillColor=#d5e8d4;strokeColor=#82b366;" parent="1" vertex="1">
          <mxGeometry x="120" y="300" width="80" height="30" as="geometry" />
        </mxCell>
        <mxCell id="bz02WKkgprwopZvEUGa7-10" value="bundle var" style="rounded=0;whiteSpace=wrap;html=1;fillColor=#fff2cc;strokeColor=#d6b656;" parent="1" vertex="1">
          <mxGeometry x="120" y="270" width="80" height="30" as="geometry" />
        </mxCell>
        <mxCell id="bz02WKkgprwopZvEUGa7-11" value="dist var" style="rounded=0;whiteSpace=wrap;html=1;fillColor=#f8cecc;strokeColor=#b85450;" parent="1" vertex="1">
          <mxGeometry x="120" y="160" width="80" height="110" as="geometry" />
        </mxCell>
        <mxCell id="bz02WKkgprwopZvEUGa7-12" value="distribution&lt;div&gt;owner fee&lt;/div&gt;" style="rounded=0;whiteSpace=wrap;html=1;fillColor=#f8cecc;strokeColor=#b85450;fillStyle=zigzag-line;" parent="1" vertex="1">
          <mxGeometry x="280" y="160" width="80" height="110" as="geometry" />
        </mxCell>
        <mxCell id="bz02WKkgprwopZvEUGa7-13" value="distribution&lt;div&gt;owner fee&lt;/div&gt;" style="rounded=0;whiteSpace=wrap;html=1;fillColor=#f8cecc;strokeColor=#b85450;fillStyle=zigzag-line;" parent="1" vertex="1">
          <mxGeometry x="400" y="230" width="80" height="40" as="geometry" />
        </mxCell>
        <mxCell id="bz02WKkgprwopZvEUGa7-14" value="commisson" style="rounded=0;whiteSpace=wrap;html=1;fillColor=#f8cecc;strokeColor=#b85450;fillStyle=dots;" parent="1" vertex="1">
          <mxGeometry x="400" y="190" width="80" height="40" as="geometry" />
        </mxCell>
        <mxCell id="bz02WKkgprwopZvEUGa7-15" value="discount" style="rounded=0;whiteSpace=wrap;html=1;fillColor=#1ba1e2;strokeColor=#006EAF;fillStyle=solid;fontColor=#ffffff;" parent="1" vertex="1">
          <mxGeometry x="400" y="160" width="80" height="30" as="geometry" />
        </mxCell>
        <mxCell id="bz02WKkgprwopZvEUGa7-16" value="&amp;nbsp;min distribut&lt;div&gt;owner fee&lt;/div&gt;" style="rounded=0;whiteSpace=wrap;html=1;fillColor=#f8cecc;strokeColor=#b85450;fillStyle=zigzag-line;" parent="1" vertex="1">
          <mxGeometry x="520" y="250" width="80" height="20" as="geometry" />
        </mxCell>
        <mxCell id="bz02WKkgprwopZvEUGa7-17" value="commisson" style="rounded=0;whiteSpace=wrap;html=1;fillColor=#f8cecc;strokeColor=#b85450;fillStyle=dots;" parent="1" vertex="1">
          <mxGeometry x="520" y="210" width="80" height="40" as="geometry" />
        </mxCell>
        <mxCell id="bz02WKkgprwopZvEUGa7-18" value="discount" style="rounded=0;whiteSpace=wrap;html=1;fillColor=#1ba1e2;strokeColor=#006EAF;fillStyle=solid;fontColor=#ffffff;" parent="1" vertex="1">
          <mxGeometry x="520" y="160" width="80" height="50" as="geometry" />
        </mxCell>
        <mxCell id="bz02WKkgprwopZvEUGa7-20" value="commisson" style="rounded=0;whiteSpace=wrap;html=1;fillColor=#f8cecc;strokeColor=#b85450;fillStyle=dots;" parent="1" vertex="1">
          <mxGeometry x="640" y="230" width="80" height="40" as="geometry" />
        </mxCell>
        <mxCell id="bz02WKkgprwopZvEUGa7-21" value="discount" style="rounded=0;whiteSpace=wrap;html=1;fillColor=#1ba1e2;strokeColor=#006EAF;fillStyle=solid;fontColor=#ffffff;" parent="1" vertex="1">
          <mxGeometry x="640" y="160" width="80" height="70" as="geometry" />
        </mxCell>
        <mxCell id="bz02WKkgprwopZvEUGa7-22" value="" style="endArrow=classic;startArrow=classic;html=1;rounded=0;" parent="1" edge="1">
          <mxGeometry width="50" height="50" relative="1" as="geometry">
            <mxPoint x="80" y="440" as="sourcePoint" />
            <mxPoint x="80" y="360" as="targetPoint" />
          </mxGeometry>
        </mxCell>
        <mxCell id="bz02WKkgprwopZvEUGa7-24" value="fix fees" style="edgeLabel;html=1;align=center;verticalAlign=middle;resizable=0;points=[];" parent="bz02WKkgprwopZvEUGa7-22" vertex="1" connectable="0">
          <mxGeometry y="1" relative="1" as="geometry">
            <mxPoint as="offset" />
          </mxGeometry>
        </mxCell>
        <mxCell id="bz02WKkgprwopZvEUGa7-23" value="" style="endArrow=classic;startArrow=classic;html=1;rounded=0;" parent="1" edge="1">
          <mxGeometry width="50" height="50" relative="1" as="geometry">
            <mxPoint x="80" y="360" as="sourcePoint" />
            <mxPoint x="80" y="160" as="targetPoint" />
          </mxGeometry>
        </mxCell>
        <mxCell id="bz02WKkgprwopZvEUGa7-25" value="variable fees" style="edgeLabel;html=1;align=center;verticalAlign=middle;resizable=0;points=[];" parent="bz02WKkgprwopZvEUGa7-23" vertex="1" connectable="0">
          <mxGeometry x="0.07" y="2" relative="1" as="geometry">
            <mxPoint as="offset" />
          </mxGeometry>
        </mxCell>
        <mxCell id="bz02WKkgprwopZvEUGa7-29" value="" style="endArrow=classic;startArrow=classic;html=1;rounded=0;" parent="1" edge="1">
          <mxGeometry width="50" height="50" relative="1" as="geometry">
            <mxPoint x="760" y="230" as="sourcePoint" />
            <mxPoint x="760" y="160" as="targetPoint" />
          </mxGeometry>
        </mxCell>
        <mxCell id="bz02WKkgprwopZvEUGa7-30" value="max discount" style="edgeLabel;html=1;align=center;verticalAlign=middle;resizable=0;points=[];" parent="bz02WKkgprwopZvEUGa7-29" vertex="1" connectable="0">
          <mxGeometry y="3" relative="1" as="geometry">
            <mxPoint as="offset" />
          </mxGeometry>
        </mxCell>
        <mxCell id="N3VzAqe2wjiN5XSIfa28-1" value="commission &amp;gt; 0&lt;br&gt;minDistributionOwnerFee = 0" style="text;html=1;align=center;verticalAlign=middle;whiteSpace=wrap;rounded=0;" vertex="1" parent="1">
          <mxGeometry x="565" y="85" width="230" height="30" as="geometry" />
        </mxCell>
        <mxCell id="N3VzAqe2wjiN5XSIfa28-2" value="minDistributionOwnerFee &amp;gt; 0" style="text;html=1;align=center;verticalAlign=middle;whiteSpace=wrap;rounded=0;" vertex="1" parent="1">
          <mxGeometry x="445" y="115" width="230" height="30" as="geometry" />
        </mxCell>
        <mxCell id="N3VzAqe2wjiN5XSIfa28-3" value="" style="endArrow=classic;startArrow=classic;html=1;rounded=0;" edge="1" parent="1">
          <mxGeometry width="50" height="50" relative="1" as="geometry">
            <mxPoint x="40" y="640" as="sourcePoint" />
            <mxPoint x="40" y="160" as="targetPoint" />
          </mxGeometry>
        </mxCell>
        <mxCell id="N3VzAqe2wjiN5XSIfa28-4" value="full premium" style="edgeLabel;html=1;align=center;verticalAlign=middle;resizable=0;points=[];" vertex="1" connectable="0" parent="N3VzAqe2wjiN5XSIfa28-3">
          <mxGeometry x="-0.3629" y="1" relative="1" as="geometry">
            <mxPoint as="offset" />
          </mxGeometry>
        </mxCell>
        <mxCell id="N3VzAqe2wjiN5XSIfa28-5" value="no referral" style="text;html=1;align=center;verticalAlign=middle;whiteSpace=wrap;rounded=0;" vertex="1" parent="1">
          <mxGeometry x="290" y="115" width="60" height="30" as="geometry" />
        </mxCell>
        <mxCell id="N3VzAqe2wjiN5XSIfa28-6" value="with referral" style="text;html=1;align=center;verticalAlign=middle;whiteSpace=wrap;rounded=0;" vertex="1" parent="1">
          <mxGeometry x="395" y="120" width="90" height="20" as="geometry" />
        </mxCell>
        <mxCell id="N3VzAqe2wjiN5XSIfa28-8" value="discount" style="rounded=0;whiteSpace=wrap;html=1;fillColor=#1ba1e2;strokeColor=#006EAF;fillStyle=solid;fontColor=#ffffff;" vertex="1" parent="1">
          <mxGeometry x="800" y="160" width="80" height="110" as="geometry" />
        </mxCell>
        <mxCell id="N3VzAqe2wjiN5XSIfa28-9" value="" style="endArrow=classic;startArrow=classic;html=1;rounded=0;" edge="1" parent="1">
          <mxGeometry width="50" height="50" relative="1" as="geometry">
            <mxPoint x="920" y="270" as="sourcePoint" />
            <mxPoint x="920" y="160" as="targetPoint" />
          </mxGeometry>
        </mxCell>
        <mxCell id="N3VzAqe2wjiN5XSIfa28-10" value="max discount" style="edgeLabel;html=1;align=center;verticalAlign=middle;resizable=0;points=[];" vertex="1" connectable="0" parent="N3VzAqe2wjiN5XSIfa28-9">
          <mxGeometry y="3" relative="1" as="geometry">
            <mxPoint as="offset" />
          </mxGeometry>
        </mxCell>
        <mxCell id="N3VzAqe2wjiN5XSIfa28-11" value="commission = 0&lt;br&gt;minDistributionOwnerFee = 0" style="text;html=1;align=center;verticalAlign=middle;whiteSpace=wrap;rounded=0;" vertex="1" parent="1">
          <mxGeometry x="750" y="115" width="180" height="30" as="geometry" />
        </mxCell>
        <mxCell id="N3VzAqe2wjiN5XSIfa28-15" value="Premium Composition aka the fee stack" style="text;html=1;align=center;verticalAlign=middle;whiteSpace=wrap;rounded=0;horizontal=1;fontSize=18;fontStyle=1" vertex="1" parent="1">
          <mxGeometry x="20" y="60" width="390" height="30" as="geometry" />
        </mxCell>
        <mxCell id="N3VzAqe2wjiN5XSIfa28-16" value="" style="endArrow=classic;startArrow=classic;html=1;rounded=0;strokeColor=#9673a6;fillColor=#e1d5e7;" edge="1" parent="1">
          <mxGeometry width="50" height="50" relative="1" as="geometry">
            <mxPoint x="370" y="160" as="sourcePoint" />
            <mxPoint x="370" y="640" as="targetPoint" />
          </mxGeometry>
        </mxCell>
        <mxCell id="N3VzAqe2wjiN5XSIfa28-17" value="premium" style="edgeLabel;html=1;align=center;verticalAlign=middle;resizable=0;points=[];" vertex="1" connectable="0" parent="N3VzAqe2wjiN5XSIfa28-16">
          <mxGeometry x="-0.0691" y="1" relative="1" as="geometry">
            <mxPoint as="offset" />
          </mxGeometry>
        </mxCell>
        <mxCell id="N3VzAqe2wjiN5XSIfa28-18" value="" style="endArrow=classic;startArrow=classic;html=1;rounded=0;strokeColor=#9673a6;fillColor=#e1d5e7;" edge="1" parent="1">
          <mxGeometry width="50" height="50" relative="1" as="geometry">
            <mxPoint x="490" y="190" as="sourcePoint" />
            <mxPoint x="490" y="640" as="targetPoint" />
          </mxGeometry>
        </mxCell>
        <mxCell id="N3VzAqe2wjiN5XSIfa28-19" value="premium" style="edgeLabel;html=1;align=center;verticalAlign=middle;resizable=0;points=[];" vertex="1" connectable="0" parent="N3VzAqe2wjiN5XSIfa28-18">
          <mxGeometry x="-0.0691" y="1" relative="1" as="geometry">
            <mxPoint as="offset" />
          </mxGeometry>
        </mxCell>
        <mxCell id="N3VzAqe2wjiN5XSIfa28-20" value="" style="endArrow=classic;startArrow=classic;html=1;rounded=0;strokeColor=#9673a6;fillColor=#e1d5e7;" edge="1" parent="1">
          <mxGeometry width="50" height="50" relative="1" as="geometry">
            <mxPoint x="610" y="210" as="sourcePoint" />
            <mxPoint x="610" y="640" as="targetPoint" />
          </mxGeometry>
        </mxCell>
        <mxCell id="N3VzAqe2wjiN5XSIfa28-21" value="premium" style="edgeLabel;html=1;align=center;verticalAlign=middle;resizable=0;points=[];" vertex="1" connectable="0" parent="N3VzAqe2wjiN5XSIfa28-20">
          <mxGeometry x="-0.0691" y="1" relative="1" as="geometry">
            <mxPoint as="offset" />
          </mxGeometry>
        </mxCell>
        <mxCell id="N3VzAqe2wjiN5XSIfa28-22" value="" style="endArrow=classic;startArrow=classic;html=1;rounded=0;strokeColor=#9673a6;fillColor=#e1d5e7;" edge="1" parent="1">
          <mxGeometry width="50" height="50" relative="1" as="geometry">
            <mxPoint x="730" y="230" as="sourcePoint" />
            <mxPoint x="730" y="640" as="targetPoint" />
          </mxGeometry>
        </mxCell>
        <mxCell id="N3VzAqe2wjiN5XSIfa28-23" value="premium" style="edgeLabel;html=1;align=center;verticalAlign=middle;resizable=0;points=[];" vertex="1" connectable="0" parent="N3VzAqe2wjiN5XSIfa28-22">
          <mxGeometry x="-0.0691" y="1" relative="1" as="geometry">
            <mxPoint as="offset" />
          </mxGeometry>
        </mxCell>
        <mxCell id="N3VzAqe2wjiN5XSIfa28-24" value="" style="endArrow=classic;startArrow=classic;html=1;rounded=0;strokeColor=#9673a6;fillColor=#e1d5e7;" edge="1" parent="1">
          <mxGeometry width="50" height="50" relative="1" as="geometry">
            <mxPoint x="890" y="270" as="sourcePoint" />
            <mxPoint x="890" y="640" as="targetPoint" />
          </mxGeometry>
        </mxCell>
        <mxCell id="N3VzAqe2wjiN5XSIfa28-25" value="premium" style="edgeLabel;html=1;align=center;verticalAlign=middle;resizable=0;points=[];" vertex="1" connectable="0" parent="N3VzAqe2wjiN5XSIfa28-24">
          <mxGeometry x="-0.0691" y="1" relative="1" as="geometry">
            <mxPoint as="offset" />
          </mxGeometry>
        </mxCell>
      </root>
    </mxGraphModel>
  </diagram>
</mxfile>
